<svg width="26" height="28" viewBox="0 0 26 28" fill="none" xmlns="http://www.w3.org/2000/svg">
<path d="M8.20189 20.1132C9.23148 21.5649 10.2594 22.8632 10.9407 23.6995C11.0398 23.8211 11.1328 23.934 11.2227 24.0428H9.16693C8.9368 24.0428 8.75028 24.2293 8.75028 24.4594C8.75028 24.6896 8.9368 24.8761 9.16693 24.8761H15.8336C16.0637 24.8761 16.2502 24.6896 16.2502 24.4594C16.2502 24.2293 16.0637 24.0428 15.8336 24.0428H13.7777C13.8677 23.934 13.9606 23.8211 14.0603 23.6995C14.7411 22.8661 15.7686 21.5649 16.7986 20.1132C17.8205 18.7018 18.7404 17.2193 19.5511 15.677C20.4019 14.0061 20.8336 12.619 20.8336 11.5541C20.8365 9.34111 19.9583 7.21805 18.3932 5.65359C18.2886 5.54519 18.1338 5.50164 17.9881 5.53967C17.8424 5.57771 17.7285 5.69138 17.6903 5.83704C17.652 5.98269 17.6953 6.13763 17.8036 6.24231C19.2124 7.65072 20.0028 9.56191 20.0003 11.554C20.0003 12.4865 19.5994 13.7465 18.8086 15.2986C18.0162 16.8052 17.1172 18.2533 16.1186 19.632C15.1028 21.0649 14.0874 22.3486 13.4145 23.1736C13.1907 23.4478 12.9895 23.6903 12.8178 23.8953C12.7376 23.9868 12.6219 24.0393 12.5003 24.0393C12.3787 24.0393 12.2629 23.9868 12.1828 23.8953C12.0111 23.6903 11.8099 23.4478 11.5861 23.1736C10.9132 22.3491 9.89779 21.0653 8.88197 19.632C7.88338 18.2533 6.9844 16.8052 6.19197 15.2986C5.40031 13.7465 5.00031 12.4865 5.00031 11.554C5.00007 8.53598 6.80496 5.81048 9.58368 4.63274C11.4508 3.84982 13.5541 3.84982 15.4212 4.63274C15.5583 4.69084 15.716 4.67146 15.8349 4.58176C15.9538 4.49211 16.0158 4.34582 15.9976 4.19802C15.9794 4.05022 15.8837 3.92336 15.7466 3.86525C11.5035 2.0756 6.61296 4.06359 4.82199 8.30609C4.38766 9.33373 4.16491 10.4384 4.16701 11.554C4.16701 12.619 4.5987 14.0061 5.44953 15.679C6.26018 17.2207 7.18006 18.7025 8.20189 20.1132Z" fill="#C3007D"/>
<path d="M12.5002 7.79278C12.7303 7.79278 12.9168 7.60625 12.9168 7.37612C12.9168 7.146 12.7303 6.95947 12.5002 6.95947C10.5124 6.95942 8.80134 8.36363 8.4135 10.3132C8.02565 12.2629 9.06906 14.2149 10.9055 14.9757C12.742 15.7364 14.8602 15.0939 15.9646 13.4411C17.0689 11.7883 16.852 9.58551 15.4464 8.17989C15.3418 8.07159 15.1869 8.02813 15.0412 8.06626C14.8956 8.1044 14.7818 8.21817 14.7436 8.36382C14.7055 8.50953 14.749 8.66441 14.8573 8.76905C15.9818 9.89352 16.1554 11.6557 15.2719 12.978C14.3885 14.3002 12.694 14.8143 11.2248 14.2058C9.75559 13.5973 8.92082 12.0357 9.23098 10.4759C9.54114 8.91622 10.9099 7.79283 12.5002 7.79278Z" fill="#C3007D"/>
<path d="M24.8431 25.9475L22.2806 21.3641C22.0489 20.9569 21.6154 20.7066 21.1469 20.7095H18.1773C17.9472 20.7095 17.7606 20.896 17.7606 21.1262C17.7606 21.3563 17.9472 21.5428 18.1773 21.5428H21.1469C21.3137 21.5396 21.4693 21.6265 21.554 21.7703L24.1156 26.3537C24.1854 26.4729 24.1839 26.6208 24.1119 26.7387C24.0268 26.8793 23.8729 26.9635 23.7085 26.9595H1.29183C1.12767 26.9634 0.973961 26.8791 0.888902 26.7387C0.816831 26.6208 0.815415 26.4729 0.885142 26.3537L3.44682 21.7703C3.53134 21.6266 3.68681 21.5396 3.85346 21.5428H6.82305C7.05318 21.5428 7.2397 21.3563 7.2397 21.1262C7.2397 20.896 7.05318 20.7095 6.82305 20.7095H3.85351C3.38476 20.7064 2.95087 20.9567 2.71894 21.3641L0.15682 25.9475C-0.0568039 26.3248 -0.0518723 26.7877 0.169759 27.1604C0.403256 27.5573 0.831431 27.7986 1.29183 27.7929H23.7085C24.1688 27.7985 24.5968 27.5572 24.8302 27.1604C25.0519 26.7876 25.0568 26.3248 24.8431 25.9475Z" fill="#C3007D"/>
<path d="M20.4169 22.793H18.7503C18.668 22.7931 18.5876 22.8174 18.519 22.863L17.269 23.6963C17.0775 23.8241 17.0259 24.0828 17.1536 24.2743C17.2813 24.4657 17.5401 24.5174 17.7315 24.3897L18.8753 23.6264H20.4169C20.6471 23.6264 20.8336 23.4398 20.8336 23.2097C20.8336 22.9795 20.6471 22.793 20.4169 22.793Z" fill="#C3007D"/>
<path d="M17.917 25.7096C17.917 25.9398 18.1035 26.1263 18.3336 26.1263H21.667C21.8971 26.1263 22.0837 25.9398 22.0837 25.7096C22.0837 25.4795 21.8971 25.293 21.667 25.293H18.3336C18.1035 25.293 17.917 25.4795 17.917 25.7096Z" fill="#C3007D"/>
<path d="M7.5003 24.4592C7.684 24.4594 7.84616 24.3393 7.89953 24.1635C7.95289 23.9878 7.88483 23.7978 7.732 23.6959L6.48199 22.8625C6.41334 22.8169 6.33272 22.7925 6.2503 22.7925H4.58364C4.35352 22.7925 4.16699 22.9791 4.16699 23.2091C4.16699 23.4393 4.35357 23.6258 4.58364 23.6258H6.1253L7.27032 24.3891C7.33844 24.4346 7.41847 24.459 7.5003 24.4592Z" fill="#C3007D"/>
<path d="M3.33364 25.293C3.10352 25.293 2.91699 25.4795 2.91699 25.7096C2.91699 25.9398 3.10352 26.1263 3.33364 26.1263H6.66701C6.89713 26.1263 7.08366 25.9398 7.08366 25.7096C7.08366 25.4795 6.89713 25.293 6.66701 25.293H3.33364Z" fill="#C3007D"/>
</svg>
