<svg width="27" height="29" viewBox="0 0 27 29" fill="none" xmlns="http://www.w3.org/2000/svg">
<path d="M25.995 11.5576C25.9924 11.5289 25.9867 11.5006 25.9779 11.4731C25.9722 11.4485 25.9642 11.4245 25.9541 11.4014C25.9425 11.3788 25.9285 11.3574 25.9125 11.3376C25.8964 11.3141 25.8778 11.2925 25.8571 11.273C25.8504 11.2672 25.8475 11.2592 25.8404 11.2534L21.8331 8.14121V4.91565C21.8331 4.22528 21.2734 3.66559 20.5831 3.66559H16.0674L14.2594 2.26176C13.8127 1.9134 13.1864 1.9134 12.7397 2.26176L10.9313 3.66559H6.41561C5.72524 3.66559 5.16554 4.22523 5.16554 4.91565V8.14125L1.15953 11.2535C1.15245 11.2593 1.14952 11.2672 1.14288 11.2731C1.12213 11.2925 1.10352 11.3142 1.08746 11.3377C1.07144 11.3574 1.05747 11.3788 1.0458 11.4014C1.0357 11.4245 1.02778 11.4486 1.02207 11.4731C1.01338 11.5002 1.00767 11.5281 1.00498 11.5565C1.00498 11.5652 1 11.5727 1 11.5815V25.75C1.00059 26.0151 1.08633 26.2729 1.24459 26.4854C1.24708 26.4892 1.24752 26.4938 1.2504 26.4971C1.25333 26.5004 1.25958 26.5042 1.26373 26.5088C1.49783 26.8168 1.86191 26.9984 2.24879 27.0001H24.7499C25.1383 26.9989 25.5039 26.8164 25.7383 26.5067C25.7416 26.5026 25.7467 26.5013 25.7495 26.4972C25.7525 26.493 25.7529 26.4893 25.7554 26.4855C25.9137 26.2729 25.9994 26.0151 26 25.7501V11.5826C26 11.5739 25.9954 11.5664 25.995 11.5576ZM13.2493 2.91926C13.3948 2.80363 13.6009 2.80363 13.7464 2.91926L14.7077 3.66554H12.2909L13.2493 2.91926ZM2.35378 26.1667L13.2494 17.7034C13.395 17.5879 13.6009 17.5879 13.7464 17.7034L24.6449 26.1667H2.35378ZM25.1666 25.5171L14.2594 17.0458C13.8126 16.6977 13.1865 16.6977 12.7397 17.0458L1.83207 25.5171V12.2172L8.66035 17.5196C8.84229 17.6607 9.10412 17.6276 9.24519 17.4456C9.38626 17.2637 9.35316 17.0019 9.17122 16.8608L2.23419 11.4743L5.16559 9.19624V12.416C5.16559 12.6461 5.35217 12.8327 5.58226 12.8327C5.8124 12.8327 5.99894 12.6461 5.99894 12.416V4.9156C5.99894 4.68546 6.18547 4.49893 6.41561 4.49893H20.583C20.8131 4.49893 20.9996 4.68546 20.9996 4.9156V12.416C20.9996 12.6461 21.1862 12.8327 21.4163 12.8327C21.6465 12.8327 21.833 12.6461 21.833 12.416V9.19624L24.7644 11.4743L17.8153 16.8704C17.6958 16.961 17.6341 17.1088 17.6539 17.2575C17.6737 17.4062 17.7719 17.5328 17.9111 17.5889C18.0502 17.645 18.2087 17.6221 18.3262 17.5287L25.1665 12.2172V25.5171H25.1666Z" fill="#C3007D"/>
<path d="M18.4995 11.9995V10.3328C18.4995 7.57121 16.2608 5.33252 13.4993 5.33252C10.7377 5.33252 8.49902 7.57121 8.49902 10.3328C8.49902 13.0943 10.7377 15.333 13.4993 15.333C13.7294 15.333 13.9159 15.1465 13.9159 14.9164C13.9159 14.6862 13.7294 14.4997 13.4993 14.4997C11.198 14.4997 9.33241 12.6341 9.33241 10.3328C9.33241 8.03153 11.198 6.16596 13.4993 6.16596C15.8006 6.16596 17.6661 8.03153 17.6661 10.3328V11.9996C17.6661 12.4598 17.293 12.8329 16.8327 12.8329C16.3725 12.8329 15.9993 12.4598 15.9993 11.9996V10.3328C15.9993 10.1027 15.8128 9.91615 15.5827 9.91615C15.3525 9.91615 15.166 10.1027 15.166 10.3328C15.166 11.2533 14.4198 11.9996 13.4993 11.9996C12.5788 11.9996 11.8325 11.2533 11.8325 10.3328C11.8325 9.41232 12.5788 8.66609 13.4993 8.66609C13.7294 8.66609 13.9159 8.47955 13.9159 8.24942C13.9159 8.01928 13.7294 7.83274 13.4993 7.83274C12.3803 7.83025 11.3959 8.57155 11.0893 9.64768C10.7826 10.7238 11.2283 11.8726 12.1805 12.4604C13.1327 13.0481 14.3594 12.9316 15.1839 12.1751C15.2747 13.0563 16.0406 13.7115 16.9252 13.6646C17.8098 13.6178 18.5023 12.8854 18.4995 11.9995Z" fill="#C3007D"/>
</svg>
