<svg width="31" height="29" viewBox="0 0 31 29" fill="none" xmlns="http://www.w3.org/2000/svg">
<path d="M21.75 2H9.25C8.55967 2 8 2.55962 8 3.25V25.75C8 26.4403 8.55962 27 9.25 27H21.75C22.4403 27 23 26.4404 23 25.75V3.25C23 2.55962 22.4403 2 21.75 2ZM22.1667 5.33335H12.5833C12.3532 5.33335 12.1667 5.51987 12.1667 5.75C12.1667 5.98013 12.3532 6.16665 12.5833 6.16665H22.1667V22.4167H20.9167C20.6866 22.4167 20.5001 22.6032 20.5001 22.8333C20.5001 23.0634 20.6866 23.25 20.9167 23.25H22.1667V25.75C22.1667 25.9801 21.9802 26.1666 21.7501 26.1666H9.25C9.01987 26.1666 8.83335 25.9801 8.83335 25.75V23.25H18.4167C18.6468 23.25 18.8334 23.0634 18.8334 22.8333C18.8334 22.6032 18.6468 22.4167 18.4167 22.4167H8.83335V6.16665H10.0833C10.3135 6.16665 10.5 5.98013 10.5 5.75C10.5 5.51987 10.3135 5.33335 10.0833 5.33335H8.83335V3.25C8.83335 3.01987 9.01987 2.83335 9.25 2.83335H21.75C21.9801 2.83335 22.1667 3.01987 22.1667 3.25V5.33335Z" fill="#C3007D"/>
<path d="M15.9165 24.5H15.0832C14.853 24.5 14.6665 24.6865 14.6665 24.9167C14.6665 25.1468 14.853 25.3333 15.0832 25.3333H15.9165C16.1466 25.3333 16.3332 25.1468 16.3332 24.9167C16.3332 24.6865 16.1466 24.5 15.9165 24.5Z" fill="#C3007D"/>
</svg>
