<svg width="45" height="45" viewBox="0 0 45 45" fill="none" xmlns="http://www.w3.org/2000/svg">
<path d="M14.4024 20.741C13.2941 20.4219 12.1858 20.2599 11.1077 20.2599C9.44282 20.2599 8.05364 20.6404 6.97646 21.1063C8.01493 17.3045 10.5096 10.7447 15.4791 10.0059C15.9394 9.9375 16.3165 9.60471 16.4421 9.15675L17.5282 5.27191C17.6198 4.94337 17.5655 4.59171 17.3781 4.3066C17.1907 4.02149 16.8896 3.83126 16.5521 3.785C16.1853 3.73496 15.8114 3.70947 15.4409 3.70947C9.47586 3.70947 3.56841 9.93561 1.07562 18.8505C-0.387669 24.0806 -0.816744 31.9437 2.78767 36.893C4.80466 39.6625 7.74729 41.1413 11.5339 41.2891C11.5495 41.2896 11.5646 41.29 11.5802 41.29C16.2523 41.29 20.3953 38.1435 21.6556 33.6388C22.4085 30.9459 22.0682 28.1217 20.6965 25.6846C19.3394 23.2748 17.1043 21.5184 14.4024 20.741Z" fill="#212226"/>
<path d="M43.6487 25.685C42.2916 23.2748 40.0565 21.5184 37.3546 20.741C36.2463 20.4219 35.138 20.2599 34.0603 20.2599C32.3955 20.2599 31.0058 20.6404 29.9287 21.1063C30.9671 17.3045 33.4618 10.7447 38.4318 10.0059C38.892 9.9375 39.2687 9.60471 39.3948 9.15675L40.4809 5.27191C40.5725 4.94337 40.5182 4.59171 40.3308 4.3066C40.1439 4.02149 39.8427 3.83126 39.5047 3.785C39.1384 3.73496 38.7646 3.70947 38.3936 3.70947C32.4285 3.70947 26.5211 9.93561 24.0278 18.8505C22.565 24.0806 22.1359 31.9437 25.7408 36.894C27.7573 39.6629 30.7004 41.1423 34.4866 41.2896C34.5022 41.29 34.5173 41.2905 34.5333 41.2905C39.205 41.2905 43.3485 38.1439 44.6088 33.6393C45.3607 30.9463 45.0199 28.1217 43.6487 25.685Z" fill="#212226"/>
</svg>
